<?xml version="1.0" encoding="UTF-8"?>
<svg version="1.1" xmlns="http://www.w3.org/2000/svg" width="32" height="32">
<path d="M0 0 C10.56 0 21.12 0 32 0 C32 10.56 32 21.12 32 32 C21.44 32 10.88 32 0 32 C0 21.44 0 10.88 0 0 Z " fill="#F2C5A2" transform="translate(0,0)"/>
<path d="M0 0 C5.28 0 10.56 0 16 0 C16 10.56 16 21.12 16 32 C11.71 32 7.42 32 3 32 C3.99 28.7 4.98 25.4 6 22 C5.34 22 4.68 22 4 22 C4 21.34 4 20.68 4 20 C2.68 20 1.36 20 0 20 C0 19.34 0 18.68 0 18 C0.99 17.34 1.98 16.68 3 16 C2.67 14.68 2.34 13.36 2 12 C2.66 11.67 3.32 11.34 4 11 C2.35 11 0.7 11 -1 11 C-1.33 10.34 -1.66 9.68 -2 9 C-2.99 9.495 -2.99 9.495 -4 10 C-3.34 10.66 -2.68 11.32 -2 12 C-3.32 12.33 -4.64 12.66 -6 13 C-6 13.66 -6 14.32 -6 15 C-5.34 15 -4.68 15 -4 15 C-4 15.66 -4 16.32 -4 17 C-5.65 17 -7.3 17 -9 17 C-9.12375 16.360625 -9.2475 15.72125 -9.375 15.0625 C-9.58125 14.381875 -9.7875 13.70125 -10 13 C-10.66 12.67 -11.32 12.34 -12 12 C-11.38125 11.401875 -10.7625 10.80375 -10.125 10.1875 C-7.86323046 7.99188856 -7.86323046 7.99188856 -6 5 C-5.01 4.67 -4.02 4.34 -3 4 C-2.01 2.68 -1.02 1.36 0 0 Z " fill="#F8D983" transform="translate(16,0)"/>
<path d="M0 0 C3.87554506 0.22145972 4.9399318 0.93713793 7.6875 3.8125 C12 9.75675676 12 9.75675676 12 14 C11.34 14 10.68 14 10 14 C10 14.66 10 15.32 10 16 C8.68 15.67 7.36 15.34 6 15 C6 13.02 6 11.04 6 9 C5.34 9 4.68 9 4 9 C4 9.66 4 10.32 4 11 C2.35 11 0.7 11 -1 11 C-1.33 10.34 -1.66 9.68 -2 9 C-2.99 9.495 -2.99 9.495 -4 10 C-3.34 10.66 -2.68 11.32 -2 12 C-3.32 12.33 -4.64 12.66 -6 13 C-6 13.66 -6 14.32 -6 15 C-5.34 15 -4.68 15 -4 15 C-4 15.66 -4 16.32 -4 17 C-5.65 17 -7.3 17 -9 17 C-9.12375 16.360625 -9.2475 15.72125 -9.375 15.0625 C-9.58125 14.381875 -9.7875 13.70125 -10 13 C-10.66 12.67 -11.32 12.34 -12 12 C-11.38125 11.401875 -10.7625 10.80375 -10.125 10.1875 C-7.86323046 7.99188856 -7.86323046 7.99188856 -6 5 C-5.01 4.67 -4.02 4.34 -3 4 C-1.31461399 2.00334686 -1.31461399 2.00334686 0 0 Z " fill="#D28253" transform="translate(16,0)"/>
<path d="M0 0 C0.99 0 1.98 0 3 0 C3.33 0.66 3.66 1.32 4 2 C6.12576782 2.46651207 6.12576782 2.46651207 8.5625 2.625 C9.38878906 2.69976563 10.21507812 2.77453125 11.06640625 2.8515625 C11.70449219 2.90054687 12.34257812 2.94953125 13 3 C12.44271087 6.34373475 11.64826111 9.03312999 10 12 C9.34 12 8.68 12 8 12 C8 13.65 8 15.3 8 17 C5.36 17 2.72 17 0 17 C0 11.39 0 5.78 0 0 Z " fill="#FDEEB7" transform="translate(0,15)"/>
<path d="M0 0 C5.28 0 10.56 0 16 0 C13 5 13 5 10 6 C9.525625 6.845625 9.05125 7.69125 8.5625 8.5625 C8.046875 9.366875 7.53125 10.17125 7 11 C5.68 11 4.36 11 3 11 C3 11.66 3 12.32 3 13 C2.01 13.33 1.02 13.66 0 14 C0 9.38 0 4.76 0 0 Z " fill="#FBF5EB" transform="translate(0,0)"/>
<path d="M0 0 C0.33 0.99 0.66 1.98 1 3 C2.65 3 4.3 3 6 3 C6.33 2.34 6.66 1.68 7 1 C6.66666667 2.33333333 6.33333333 3.66666667 6 5 C5.87625 5.721875 5.7525 6.44375 5.625 7.1875 C5.315625 8.0846875 5.315625 8.0846875 5 9 C4.01 9.33 3.02 9.66 2 10 C0.79117904 12.00016466 0.79117904 12.00016466 0 14 C-0.33 12.68 -0.66 11.36 -1 10 C-2.0209375 10.2784375 -2.0209375 10.2784375 -3.0625 10.5625 C-6.57232191 11.08523943 -9.52188063 10.61378577 -13 10 C-12.34 9.67 -11.68 9.34 -11 9 C-11 8.34 -11 7.68 -11 7 C-11.99 6.67 -12.98 6.34 -14 6 C-13.01 5.67 -12.02 5.34 -11 5 C-11 4.34 -11 3.68 -11 3 C-10.01 3.33 -9.02 3.66 -8 4 C-7.3125 6.0625 -7.3125 6.0625 -7 8 C-5.35 8.33 -3.7 8.66 -2 9 C-2 8.34 -2 7.68 -2 7 C-2.66 7 -3.32 7 -4 7 C-4 6.34 -4 5.68 -4 5 C-3.34 4.67 -2.68 4.34 -2 4 C-2 3.01 -2 2.02 -2 1 C-1.34 0.67 -0.68 0.34 0 0 Z " fill="#F8C3A1" transform="translate(14,8)"/>
<path d="M0 0 C3.87554506 0.22145972 4.9399318 0.93713793 7.6875 3.8125 C12 9.75675676 12 9.75675676 12 14 C11.34 14 10.68 14 10 14 C10 14.66 10 15.32 10 16 C8.68 15.67 7.36 15.34 6 15 C5.67 12.36 5.34 9.72 5 7 C3.68 6.67 2.36 6.34 1 6 C0.67 4.02 0.34 2.04 0 0 Z " fill="#A97551" transform="translate(16,0)"/>
<path d="M0 0 C3.96 0 7.92 0 12 0 C12 4.29 12 8.58 12 13 C10 12 10 12 9 10 C8.01 9.67 7.02 9.34 6 9 C4.59886384 7.04690112 3.26660533 5.04291182 2 3 C1.34 2.01 0.68 1.02 0 0 Z " fill="#FBF9F3" transform="translate(20,0)"/>
<path d="M0 0 C1.67542976 0.28604898 3.34385343 0.61781233 5 1 C5 4.3 5 7.6 5 11 C0.71 11 -3.58 11 -8 11 C-6.74874616 7.24623848 -5.4347596 6.75926711 -2 5 C-1.34 5 -0.68 5 0 5 C-0.2784375 4.0409375 -0.2784375 4.0409375 -0.5625 3.0625 C-0.706875 2.381875 -0.85125 1.70125 -1 1 C-0.67 0.67 -0.34 0.34 0 0 Z " fill="#DAAE5F" transform="translate(27,21)"/>
<path d="M0 0 C0.66 0.33 1.32 0.66 2 1 C2.144375 1.66 2.28875 2.32 2.4375 3 C2.623125 3.66 2.80875 4.32 3 5 C3.99 5.33 4.98 5.66 6 6 C5.67 7.32 5.34 8.64 5 10 C3.35 10 1.7 10 0 10 C-0.66 8.68 -1.32 7.36 -2 6 C-3.32 6 -4.64 6 -6 6 C-5 4 -5 4 -2 3 C-1.34 2.01 -0.68 1.02 0 0 Z " fill="#CA8D6A" transform="translate(15,1)"/>
<path d="M0 0 C0.33 0 0.66 0 1 0 C1.33 1.98 1.66 3.96 2 6 C3.32 6.33 4.64 6.66 6 7 C6 7.99 6 8.98 6 10 C2.37 10.33 -1.26 10.66 -5 11 C-5 10.34 -5 9.68 -5 9 C-4.01 8.34 -3.02 7.68 -2 7 C-2.33 5.68 -2.66 4.36 -3 3 C-2.34 3 -1.68 3 -1 3 C-0.67 2.01 -0.34 1.02 0 0 Z " fill="#D29C6C" transform="translate(21,9)"/>
<path d="M0 0 C0 0.66 0 1.32 0 2 C0.66 2 1.32 2 2 2 C1.34 3.32 0.68 4.64 0 6 C-2.86724686 5.42655063 -3.8614515 5.1385485 -6 3 C-6.33 4.98 -6.66 6.96 -7 9 C-7.33 9 -7.66 9 -8 9 C-8.1875 5.625 -8.1875 5.625 -8 2 C-4.77208445 -0.1519437 -3.71599191 -0.20086443 0 0 Z " fill="#F0BE9E" transform="translate(20,20)"/>
<path d="M0 0 C2.625 0.9375 2.625 0.9375 5 2 C5.25 4.3125 5.25 4.3125 5 7 C2.95575462 8.97610386 1.8823175 10 -1 10 C-0.67 7.69 -0.34 5.38 0 3 C-0.66 3 -1.32 3 -2 3 C-2 2.34 -2 1.68 -2 1 C-1.34 0.67 -0.68 0.34 0 0 Z " fill="#F4D47B" transform="translate(22,19)"/>
<path d="M0 0 C1.98 0.99 1.98 0.99 4 2 C4 2.99 4 3.98 4 5 C4.33 4.34 4.66 3.68 5 3 C5.99 3 6.98 3 8 3 C8 4.32 8 5.64 8 7 C5.36 7 2.72 7 0 7 C0 4.69 0 2.38 0 0 Z " fill="#FBF1E5" transform="translate(0,25)"/>
<path d="M0 0 C1.5 1.3125 1.5 1.3125 3 3 C3 3.99 3 4.98 3 6 C2.34 6 1.68 6 1 6 C1 6.66 1 7.32 1 8 C-0.32 7.67 -1.64 7.34 -3 7 C-3 5.02 -3 3.04 -3 1 C-2.01 0.67 -1.02 0.34 0 0 Z " fill="#8F684E" transform="translate(25,8)"/>
<path d="M0 0 C0.99 0.33 1.98 0.66 3 1 C3.3721042 2.32303717 3.70630173 3.65737935 4 5 C4.66 5.33 5.32 5.66 6 6 C5.67 6.66 5.34 7.32 5 8 C2.69 7.67 0.38 7.34 -2 7 C-1.34 6.67 -0.68 6.34 0 6 C0 5.34 0 4.68 0 4 C-0.99 3.67 -1.98 3.34 -3 3 C-2.01 2.67 -1.02 2.34 0 2 C0 1.34 0 0.68 0 0 Z " fill="#F7DB98" transform="translate(3,11)"/>
<path d="M0 0 C2.1875 0.0625 2.1875 0.0625 5 1 C6.93157957 3.1717219 8.48201687 5.52601047 10 8 C8.68 8.33 7.36 8.66 6 9 C4 6 2 3 0 0 Z " fill="#E6D8CD" transform="translate(20,0)"/>
<path d="M0 0 C-2.33333333 2.33333333 -4.66666667 4.66666667 -7 7 C-7.66 5.02 -8.32 3.04 -9 1 C-5.92677456 0.08941469 -3.19902639 -0.08886184 0 0 Z " fill="#F3CFAB" transform="translate(13,4)"/>
<path d="M0 0 C2.625 0.9375 2.625 0.9375 5 2 C4.67 2.99 4.34 3.98 4 5 C2.02 5 0.04 5 -2 5 C-2 3.68 -2 2.36 -2 1 C-1.34 0.67 -0.68 0.34 0 0 Z " fill="#FEE384" transform="translate(2,19)"/>
<path d="M0 0 C1.65 0 3.3 0 5 0 C5 0.66 5 1.32 5 2 C4.34 2 3.68 2 3 2 C2.67 3.98 2.34 5.96 2 8 C1.34 8 0.68 8 0 8 C0 5.36 0 2.72 0 0 Z " fill="#F7FAFA" transform="translate(0,0)"/>
<path d="M0 0 C0.33 0.99 0.66 1.98 1 3 C0.67 3.66 0.34 4.32 0 5 C-1.65 5 -3.3 5 -5 5 C-5.33 4.01 -5.66 3.02 -6 2 C-4.02 1.34 -2.04 0.68 0 0 Z " fill="#E8C55F" transform="translate(30,27)"/>
<path d="M0 0 C0.99 0.33 1.98 0.66 3 1 C3 3.31 3 5.62 3 8 C2.34 8 1.68 8 1 8 C1 6.68 1 5.36 1 4 C0.01 4.33 -0.98 4.66 -2 5 C-1.34 3.35 -0.68 1.7 0 0 Z " fill="#D3AC44" transform="translate(29,24)"/>
<path d="M0 0 C0.99 0.33 1.98 0.66 3 1 C1.68 1.33 0.36 1.66 -1 2 C-1 2.66 -1 3.32 -1 4 C-0.34 4 0.32 4 1 4 C1 4.66 1 5.32 1 6 C-0.65 6 -2.3 6 -4 6 C-4.33 4.68 -4.66 3.36 -5 2 C-4.67 2.66 -4.34 3.32 -4 4 C-3.34 4 -2.68 4 -2 4 C-2 3.01 -2 2.02 -2 1 C-1.34 0.67 -0.68 0.34 0 0 Z " fill="#E59A69" transform="translate(11,11)"/>
<path d="M0 0 C0.33 0.66 0.66 1.32 1 2 C1.66 2 2.32 2 3 2 C2.34 3.32 1.68 4.64 1 6 C-0.32 5.67 -1.64 5.34 -3 5 C-2.67 4.01 -2.34 3.02 -2 2 C-1.34 2 -0.68 2 0 2 C0 1.34 0 0.68 0 0 Z " fill="#D7B688" transform="translate(19,20)"/>
<path d="M0 0 C0.75 1.6875 0.75 1.6875 1 4 C-0.9375 6.75 -0.9375 6.75 -3 9 C-3 8.34 -3 7.68 -3 7 C-3.66 7 -4.32 7 -5 7 C-5 5 -5 5 -3.625 3.375 C-2 2 -2 2 0 2 C0 1.34 0 0.68 0 0 Z " fill="#FBD8BA" transform="translate(12,18)"/>
<path d="M0 0 C1.65 0 3.3 0 5 0 C5.33 0.99 5.66 1.98 6 3 C5.01 3 4.02 3 3 3 C3 3.66 3 4.32 3 5 C2.01 5.33 1.02 5.66 0 6 C0 4.02 0 2.04 0 0 Z " fill="#FAECCB" transform="translate(0,8)"/>
<path d="M0 0 C0.66 0.66 1.32 1.32 2 2 C0.84826645 4.46800047 -0.04783565 6.04783565 -2 8 C-2 7.34 -2 6.68 -2 6 C-3.32 6 -4.64 6 -6 6 C-5 4 -5 4 -2 3 C-1.34 2.01 -0.68 1.02 0 0 Z " fill="#E1A075" transform="translate(15,1)"/>
<path d="M0 0 C1.67542976 0.28604898 3.34385343 0.61781233 5 1 C4.67 1.99 4.34 2.98 4 4 C3.34 3.67 2.68 3.34 2 3 C1.67 3.99 1.34 4.98 1 6 C0.01 5.67 -0.98 5.34 -2 5 C-1.34 5 -0.68 5 0 5 C-0.2784375 4.0409375 -0.2784375 4.0409375 -0.5625 3.0625 C-0.7790625 2.0415625 -0.7790625 2.0415625 -1 1 C-0.67 0.67 -0.34 0.34 0 0 Z " fill="#ECC560" transform="translate(27,21)"/>
<path d="M0 0 C1.32 0.66 2.64 1.32 4 2 C3.67 3.32 3.34 4.64 3 6 C1.68 6.33 0.36 6.66 -1 7 C-0.67 4.69 -0.34 2.38 0 0 Z " fill="#D8B489" transform="translate(27,9)"/>
<path d="M0 0 C1.32 0 2.64 0 4 0 C3.34 1.65 2.68 3.3 2 5 C0.68 4.67 -0.64 4.34 -2 4 C-1.34 2.68 -0.68 1.36 0 0 Z " fill="#F1B58F" transform="translate(17,27)"/>
<path d="M0 0 C0.66 0 1.32 0 2 0 C2 1.98 2 3.96 2 6 C0.0625 5.6875 0.0625 5.6875 -2 5 C-2.33 4.01 -2.66 3.02 -3 2 C-2.01 2 -1.02 2 0 2 C0 1.34 0 0.68 0 0 Z " fill="#FBE18F" transform="translate(30,13)"/>
</svg>
