<?xml version="1.0" encoding="UTF-8"?>
<svg version="1.1" xmlns="http://www.w3.org/2000/svg" width="256" height="256">
<path d="M0 0 C84.48 0 168.96 0 256 0 C256 84.48 256 168.96 256 256 C171.52 256 87.04 256 0 256 C0 171.52 0 87.04 0 0 Z " fill="#FEFEFE" transform="translate(0,0)"/>
<path d="M0 0 C30.69 0 61.38 0 93 0 C93 8.91 93 17.82 93 27 C95.31 25.35 97.62 23.7 100 22 C103.03125 21.20703125 103.03125 21.20703125 106 21 C107.0621875 20.92136719 108.124375 20.84273437 109.21875 20.76171875 C120.2753978 20.51162791 120.2753978 20.51162791 125 25 C128.97583953 29.26994272 131.03873975 32.2888144 131.5625 38.125 C131.64628906 39.03507812 131.73007813 39.94515625 131.81640625 40.8828125 C131.87699219 41.58148438 131.93757812 42.28015625 132 43 C132.33 41.865625 132.66 40.73125 133 39.5625 C135.50726443 32.90405719 140.53226869 27.25698384 146.5625 23.5 C155.47261324 19.61195059 168.28431655 19.24695058 177.4375 22.5625 C186.09282014 26.66693634 189.68739972 31.37479944 194 40 C194.33 34.06 194.66 28.12 195 22 C203.25 22 211.5 22 220 22 C220 41.14 220 60.28 220 80 C212.08 80 204.16 80 196 80 C196 72.08 196 64.16 196 56 C181.81 56 167.62 56 153 56 C154.93917866 61.38517159 154.93917866 61.38517159 158 66 C159.76747729 66.12562235 161.54060292 66.17576558 163.3125 66.1875 C164.76076172 66.20876953 164.76076172 66.20876953 166.23828125 66.23046875 C168.94440424 66.18969536 168.94440424 66.18969536 170.86108398 64.99780273 C173.41023171 63.80862721 175.18148909 63.77050596 177.984375 63.8046875 C179.38623047 63.81435547 179.38623047 63.81435547 180.81640625 63.82421875 C181.78449219 63.84097656 182.75257813 63.85773438 183.75 63.875 C184.73355469 63.88402344 185.71710938 63.89304688 186.73046875 63.90234375 C189.15389407 63.92587215 191.57682222 63.95874632 194 64 C193.39770727 65.27939974 192.78659667 66.55465043 192.171875 67.828125 C191.8325293 68.5387207 191.49318359 69.24931641 191.14355469 69.98144531 C187.99557321 75.53812996 181.78906202 78.72453053 176 81 C166.90349814 83.36822721 155.65956772 83.34486089 147.11328125 79.265625 C139.14795942 74.4952659 134.95751005 68.87253014 132 60 C131.67 66.6 131.34 73.2 131 80 C123.74 80 116.48 80 109 80 C108.97421875 77.29167969 108.9484375 74.58335937 108.921875 71.79296875 C108.8834688 69.17168759 108.83830413 66.55060409 108.79248047 63.92944336 C108.76424486 62.10694811 108.7430432 60.28432981 108.72900391 58.46166992 C108.7076096 55.84229417 108.66098021 53.22440185 108.609375 50.60546875 C108.60814636 49.78974899 108.60691772 48.97402924 108.60565186 48.1335907 C108.51517379 43.64344796 108.51517379 43.64344796 106.18457031 39.95825195 C102.80877145 38.47747295 100.49469383 39.04690168 97 40 C94.22666992 42.51864882 93.9911331 44.078966 93.56762695 47.85058594 C93.52634544 49.39485705 93.50079699 50.93960292 93.48828125 52.484375 C93.46135445 53.70776581 93.46135445 53.70776581 93.43388367 54.95587158 C93.3798198 57.55386223 93.34589818 60.15166958 93.3125 62.75 C93.27932339 64.5143484 93.24483341 66.27867263 93.20898438 68.04296875 C93.12162852 72.36200495 93.06152943 76.68020995 93 81 C85.41 81 77.82 81 70 81 C70 61.2 70 41.4 70 21 C62.74 21 55.48 21 48 21 C48 40.8 48 60.6 48 81 C39.75 81 31.5 81 23 81 C23 61.2 23 41.4 23 21 C15.41 21 7.82 21 0 21 C0 14.07 0 7.14 0 0 Z " fill="#050505" transform="translate(15,84)"/>
<path d="M0 0 C8.25 0 16.5 0 25 0 C25 19.14 25 38.28 25 58 C17.08 58 9.16 58 1 58 C0.855625 54.308125 0.71125 50.61625 0.5625 46.8125 C0.30637638 40.29330603 0.03981556 33.80524418 -0.625 27.3125 C-1.42874048 18.23641525 -0.52651752 9.06780165 0 0 Z " fill="#D51C23" transform="translate(210,106)"/>
<path d="M0 0 C3.12291165 1.68012647 5.39164837 3.78329674 7 7 C8.32361616 16.20514876 8.32361616 16.20514876 5.5078125 20.0234375 C2.12044019 22.90481229 -0.73419637 24.82626225 -5.1875 25.4375 C-10.21790545 24.86024036 -12.64433481 22.65900216 -16 19 C-17.84977549 15.30044901 -17.47056911 11.03799166 -17 7 C-12.81960161 0.08071991 -7.64979987 -1.19973569 0 0 Z " fill="#D62128" transform="translate(228,73)"/>
<path d="M0 0 C0.33 0 0.66 0 1 0 C1 19.47 1 38.94 1 59 C-7.58 59 -16.16 59 -25 59 C-25.33 54.71 -25.66 50.42 -26 46 C-26.99 46.495 -26.99 46.495 -28 47 C-27.67 45.68 -27.34 44.36 -27 43 C-30.24992446 42.94180576 -33.49971435 42.90633884 -36.75 42.875 C-37.67039063 42.85824219 -38.59078125 42.84148437 -39.5390625 42.82421875 C-40.42851562 42.81777344 -41.31796875 42.81132812 -42.234375 42.8046875 C-43.05131836 42.79421387 -43.86826172 42.78374023 -44.70996094 42.77294922 C-47.2366687 43.02346502 -48.78541468 43.80154237 -51 45 C-54.72434873 45.52031343 -58.27729572 45.54878771 -62 45 C-66.21850058 41.58502334 -66.07011189 39.57932867 -67 34 C-52.81 34 -38.62 34 -24 34 C-24 41.92 -24 49.84 -24 58 C-16.08 58 -8.16 58 0 58 C0 38.86 0 19.72 0 0 Z " fill="#FCFCFC" transform="translate(235,106)"/>
<path d="M0 0 C0.33 0 0.66 0 1 0 C1 19.47 1 38.94 1 59 C-7.58 59 -16.16 59 -25 59 C-25.33 54.71 -25.66 50.42 -26 46 C-26.99 46.495 -26.99 46.495 -28 47 C-27.67 45.68 -27.34 44.36 -27 43 C-33.6 42.67 -40.2 42.34 -47 42 C-47 41.67 -47 41.34 -47 41 C-39.74 41 -32.48 41 -25 41 C-25 39.02 -25 37.04 -25 35 C-38.86 35 -52.72 35 -67 35 C-67 34.67 -67 34.34 -67 34 C-52.81 34 -38.62 34 -24 34 C-24 41.92 -24 49.84 -24 58 C-16.08 58 -8.16 58 0 58 C0 38.86 0 19.72 0 0 Z " fill="#C59C9E" transform="translate(235,106)"/>
<path d="M0 0 C3 1.625 3 1.625 5 4 C5.33 5.98 5.66 7.96 6 10 C-0.93 10 -7.86 10 -15 10 C-13 3 -13 3 -11.4375 1.0625 C-7.63070097 -0.59687394 -4.07904047 -0.6471205 0 0 Z " fill="#E9E9E9" transform="translate(183,119)"/>
</svg>
